<mxfile host="app.diagrams.net" modified="2022-11-10T02:56:05.964Z" agent="5.0 (Windows NT 10.0; Win64; x64) AppleWebKit/537.36 (KHTML, like Gecko) Chrome/107.0.0.0 Safari/537.36 Edg/107.0.1418.35" etag="H1lfZlMep37z8I6WsrIy" version="20.4.1" type="github">
  <diagram id="Jnsj2CC1U3j9YRmBb50Y" name="第 1 页">
    <mxGraphModel dx="2335" dy="744" grid="1" gridSize="10" guides="1" tooltips="1" connect="1" arrows="1" fold="1" page="1" pageScale="1" pageWidth="1169" pageHeight="827" math="0" shadow="0">
      <root>
        <mxCell id="0" />
        <mxCell id="1" parent="0" />
        <mxCell id="134v2Im0EWoy3_GFTRBs-5" value="" style="rounded=0;whiteSpace=wrap;html=1;fontSize=16;fillColor=#FFFFFF;" parent="1" vertex="1">
          <mxGeometry x="570" y="160" width="370" height="230" as="geometry" />
        </mxCell>
        <mxCell id="134v2Im0EWoy3_GFTRBs-4" value="" style="rounded=0;whiteSpace=wrap;html=1;fontSize=16;fillColor=#FFFFFF;" parent="1" vertex="1">
          <mxGeometry x="-10" y="160" width="380" height="230" as="geometry" />
        </mxCell>
        <mxCell id="134v2Im0EWoy3_GFTRBs-13" style="rounded=0;orthogonalLoop=1;jettySize=auto;html=1;exitX=0.25;exitY=1;exitDx=0;exitDy=0;entryX=0.75;entryY=0;entryDx=0;entryDy=0;fontSize=16;" parent="1" source="134v2Im0EWoy3_GFTRBs-1" target="134v2Im0EWoy3_GFTRBs-2" edge="1">
          <mxGeometry relative="1" as="geometry" />
        </mxCell>
        <mxCell id="134v2Im0EWoy3_GFTRBs-14" style="edgeStyle=none;rounded=0;orthogonalLoop=1;jettySize=auto;html=1;exitX=0.75;exitY=1;exitDx=0;exitDy=0;entryX=0.25;entryY=0;entryDx=0;entryDy=0;fontSize=16;" parent="1" source="134v2Im0EWoy3_GFTRBs-1" target="134v2Im0EWoy3_GFTRBs-3" edge="1">
          <mxGeometry relative="1" as="geometry" />
        </mxCell>
        <mxCell id="134v2Im0EWoy3_GFTRBs-1" value="&lt;font style=&quot;font-size: 18px;&quot;&gt;IDL文件&lt;/font&gt;" style="rounded=0;whiteSpace=wrap;html=1;fontSize=16;fillColor=#FFFFFF;" parent="1" vertex="1">
          <mxGeometry x="410" y="50" width="120" height="60" as="geometry" />
        </mxCell>
        <mxCell id="134v2Im0EWoy3_GFTRBs-11" style="edgeStyle=orthogonalEdgeStyle;rounded=0;orthogonalLoop=1;jettySize=auto;html=1;exitX=1;exitY=0.5;exitDx=0;exitDy=0;entryX=0;entryY=0.5;entryDx=0;entryDy=0;fontSize=16;" parent="1" source="134v2Im0EWoy3_GFTRBs-2" target="134v2Im0EWoy3_GFTRBs-3" edge="1">
          <mxGeometry relative="1" as="geometry" />
        </mxCell>
        <mxCell id="134v2Im0EWoy3_GFTRBs-2" value="&lt;font style=&quot;font-size: 18px;&quot;&gt;客户端调用代码&lt;/font&gt;" style="rounded=0;whiteSpace=wrap;html=1;fontSize=16;fillColor=#FFFFFF;" parent="1" vertex="1">
          <mxGeometry x="190" y="270" width="150" height="60" as="geometry" />
        </mxCell>
        <mxCell id="134v2Im0EWoy3_GFTRBs-12" style="edgeStyle=orthogonalEdgeStyle;rounded=0;orthogonalLoop=1;jettySize=auto;html=1;exitX=1;exitY=0.5;exitDx=0;exitDy=0;entryX=0;entryY=0.5;entryDx=0;entryDy=0;fontSize=16;" parent="1" source="134v2Im0EWoy3_GFTRBs-3" target="134v2Im0EWoy3_GFTRBs-9" edge="1">
          <mxGeometry relative="1" as="geometry" />
        </mxCell>
        <mxCell id="134v2Im0EWoy3_GFTRBs-3" value="&lt;font style=&quot;font-size: 18px;&quot;&gt;服务端监听代码&lt;/font&gt;" style="rounded=0;whiteSpace=wrap;html=1;fontSize=16;fillColor=#FFFFFF;" parent="1" vertex="1">
          <mxGeometry x="600" y="270" width="140" height="60" as="geometry" />
        </mxCell>
        <mxCell id="134v2Im0EWoy3_GFTRBs-6" value="&lt;font style=&quot;font-size: 18px;&quot;&gt;上游调用方服务&lt;/font&gt;" style="text;html=1;strokeColor=none;fillColor=none;align=center;verticalAlign=middle;whiteSpace=wrap;rounded=0;fontSize=16;" parent="1" vertex="1">
          <mxGeometry x="117.5" y="180" width="132.5" height="30" as="geometry" />
        </mxCell>
        <mxCell id="134v2Im0EWoy3_GFTRBs-7" value="&lt;font style=&quot;font-size: 18px;&quot;&gt;RPC服务&lt;/font&gt;" style="text;html=1;strokeColor=none;fillColor=none;align=center;verticalAlign=middle;whiteSpace=wrap;rounded=0;fontSize=16;" parent="1" vertex="1">
          <mxGeometry x="700" y="180" width="125" height="30" as="geometry" />
        </mxCell>
        <mxCell id="134v2Im0EWoy3_GFTRBs-10" style="edgeStyle=orthogonalEdgeStyle;rounded=0;orthogonalLoop=1;jettySize=auto;html=1;exitX=1;exitY=0.5;exitDx=0;exitDy=0;entryX=0;entryY=0.5;entryDx=0;entryDy=0;fontSize=16;" parent="1" source="134v2Im0EWoy3_GFTRBs-8" target="134v2Im0EWoy3_GFTRBs-2" edge="1">
          <mxGeometry relative="1" as="geometry" />
        </mxCell>
        <mxCell id="134v2Im0EWoy3_GFTRBs-8" value="&lt;font style=&quot;font-size: 18px;&quot;&gt;业务代码&lt;/font&gt;" style="rounded=0;whiteSpace=wrap;html=1;fontSize=16;fillColor=#FFFFFF;" parent="1" vertex="1">
          <mxGeometry x="20" y="270" width="120" height="60" as="geometry" />
        </mxCell>
        <mxCell id="134v2Im0EWoy3_GFTRBs-9" value="&lt;font style=&quot;font-size: 18px;&quot;&gt;业务代码&lt;/font&gt;" style="rounded=0;whiteSpace=wrap;html=1;fontSize=16;fillColor=#FFFFFF;" parent="1" vertex="1">
          <mxGeometry x="790" y="270" width="120" height="60" as="geometry" />
        </mxCell>
      </root>
    </mxGraphModel>
  </diagram>
</mxfile>
